<?xml version="1.0" encoding="UTF-8"?>
<svg id="A_modifier" data-name="A modifier" xmlns="http://www.w3.org/2000/svg" viewBox="0 0 200 160">
  <defs>
    <style>
      .cls-1 {
        fill: #fff;
      }
    </style>
  </defs>
  <path class="cls-1" d="M115.3,69.61c-2.17-1.87-2.86-4.82.44-6.05,1.8-.67,4.04.08,5.8.51,3.61.89,7.22,1.83,10.94,2.09,5.65.39,11.71-.81,16.71-3.51,9.59-5.18,12.11-16,9.13-25.94s-11.8-17.63-22.64-18.54c-11.33-.96-21.8,11.15-28.83,18.52l4.71,3.64c7.13-11.46,16.87-17.77,30.46-18.08,12.87-.29,25.9,7.51,32.67,18.35,8.08,12.93,5.76,30.38-.78,43.43-6.93,13.84-18.15,25.15-30.06,34.82-6.82,5.54-14.06,10.57-21.49,15.26-3.41,2.16-8.66,6.67-12.92,5.37-4.94-1.51-7.23-7.34-2.04-9.93,3.46-1.72.42-6.9-3.03-5.18-6.47,3.22-7.97,10.24-3.56,15.98,2.21,2.88,5.6,4.98,9.25,5.34,4.88.49,8.72-2.31,12.69-4.75,17.47-10.78,34.54-23.44,47.25-39.74,11.66-14.96,18.6-33.32,14.43-52.35-3.46-15.81-18.19-28.53-33.77-31.85-7.79-1.66-16.8-.87-24.21,2.05-8.83,3.47-15.16,10.34-20.09,18.26-1.79,2.88,2.35,6.11,4.71,3.64,4.27-4.47,8.68-8.96,13.72-12.57,5.44-3.9,9.92-5.22,16.37-2.72,8.73,3.37,14.45,14.18,11.94,23.38-1.52,5.56-6.18,8.75-11.51,10.22-7.27,2-13.51-.11-20.61-1.47-4.52-.86-9.78-.25-12.34,4.06s-1.11,9.02,2.4,12.03c2.91,2.5,7.18-1.72,4.24-4.24h0Z"/>
  <path class="cls-1" d="M114.23,93.86c4.93,3.49,7.59,10.14,2.24,14.66-4.72,4-9.88.46-12.65-3.96-3.31-5.28-4.53-11.29-9.45-15.51-4.41-3.78-10.22-4.93-15.76-3.2-11.63,3.64-16.44,15.77-14.85,27.08,1.92,13.64,11.05,24.06,21.41,32.41l4.24-4.24c-25.76-20.34-59.44-38.53-67.84-73.05-4.16-17.09,3.01-38.01,20.09-45.24,7.16-3.03,16.96-4.28,24.54-2.34,8.95,2.29,17.14,9.27,21.97,17.01s5.98,21.91-5,24.76c-3.46.9-7.76,1.2-10.96-.51-5.89-3.14-9.53-10.22-6.39-16.54,1.71-3.45-3.46-6.49-5.18-3.03-9.1,18.31,15.81,35.21,30.63,22.56,7.74-6.61,7.91-18.26,3.92-26.85-4.43-9.53-13.55-17.8-23.23-21.76-9.08-3.72-20.64-2.98-29.84.12-9.9,3.34-17.48,10.82-22.41,19.9-11.48,21.15-2.71,45.14,11.02,62.9,14.86,19.21,35.66,31.49,54.43,46.31,2.99,2.36,7.26-1.81,4.24-4.24-11.1-8.95-23.22-22.53-19.43-38.08,1.93-7.89,11.47-15.6,19.41-10.25,6.04,4.07,6.78,12.22,11.22,17.58,5.43,6.58,14.63,8.18,20.86,1.68,7.37-7.68,3.51-17.89-4.22-23.35-3.16-2.23-6.16,2.97-3.03,5.18h0Z"/>
</svg>