<?xml version="1.0" encoding="UTF-8"?>
<svg id="A_modifier" data-name="A modifier" xmlns="http://www.w3.org/2000/svg" viewBox="0 0 200 160">
  <defs>
    <style>
      .cls-1 {
        fill: #fff;
      }
    </style>
  </defs>
  <path class="cls-1" d="M114.24,70.67c-2.98-2.56-3.38-7.15,1.1-8.56,2.15-.67,4.5,0,6.6.51,3.48.86,6.95,1.78,10.54,2.03,5.39.38,11.18-.73,15.96-3.31,9.01-4.87,11.23-14.93,8.44-24.24-2.91-9.71-11.29-16.81-21.59-17.5s-20.79,11.24-27.37,18.14l2.36,1.82c7.41-11.91,17.63-18.5,31.76-18.82,13.4-.31,26.92,7.81,33.97,19.09,8.37,13.4,5.99,31.42-.78,44.94s-18.3,25.38-30.29,35.12c-6.92,5.62-14.26,10.73-21.79,15.5-3.87,2.44-9.25,6.97-14.07,5.52-6.08-1.83-8.82-9.47-2.39-12.67,1.73-.86.21-3.45-1.51-2.59-5.58,2.77-7.04,8.54-3.26,13.62,5.77,7.75,13.4,4.5,20.12.35,17.35-10.71,34.34-23.29,46.94-39.5,11.29-14.53,18.1-32.41,14.05-50.89-3.36-15.33-17.62-27.58-32.72-30.8-17.7-3.78-33.38,4.8-42.6,19.62-.9,1.44,1.18,3.05,2.36,1.82,4.36-4.57,8.88-9.13,14.03-12.81,5.73-4.1,10.73-5.45,17.53-2.87,9.48,3.6,15.75,15.24,12.98,25.22-1.68,6.07-6.71,9.66-12.56,11.27-7.57,2.08-14.02-.1-21.41-1.47-3.85-.71-8.44-.33-10.64,3.37s-.84,7.64,2.16,10.22c1.46,1.25,3.59-.86,2.12-2.12h0Z"/>
  <path class="cls-1" d="M114.99,92.57c5.78,4.08,8.64,11.94,2.4,17.13-5.46,4.54-11.61.85-14.86-4.39s-4.4-11.12-9.22-15.21c-4.03-3.41-9.28-4.4-14.3-2.81-10.82,3.42-15.23,14.71-13.8,25.23,1.82,13.4,10.88,23.57,21.02,31.75l2.12-2.12c-26.01-20.53-59.75-38.86-68.23-73.71-4.34-17.82,3.18-39.49,20.96-47.01,7.47-3.16,17.61-4.45,25.51-2.42,9.33,2.4,17.83,9.63,22.87,17.7s6.05,23.84-5.9,26.96c-3.85,1-8.57,1.26-12.12-.66-6.63-3.58-10.44-11.52-6.92-18.59.86-1.72-1.73-3.24-2.59-1.51-8.35,16.8,14.68,32.17,28.28,20.74,7.25-6.1,7.38-17.06,3.69-25.03-4.25-9.19-13.02-17.21-22.33-21.07-8.83-3.66-20.09-2.9-29.04.12-9.53,3.21-16.78,10.48-21.52,19.21-11.2,20.64-2.4,44.13,11.02,61.38,14.81,19.06,35.53,31.27,54.2,46.01,1.49,1.18,3.63-.9,2.12-2.12-11.55-9.31-23.77-23.44-19.81-39.54,2.18-8.86,12.81-16.97,21.62-11.15,6.37,4.21,7.02,12.41,11.64,17.97,4.86,5.85,13.07,7.43,18.62,1.53,6.58-6.99,3.08-16.05-3.92-21-1.58-1.12-3.08,1.48-1.51,2.59h0Z"/>
</svg>